<svg viewBox="0 0 512 512" xmlns="http://www.w3.org/2000/svg"><path d="m511.914062 256c0-141.386719-114.59375-256-255.957031-256-141.359375 0-255.957031 114.613281-255.957031 256s114.597656 256 255.957031 256c141.363281 0 255.957031-114.613281 255.957031-256zm0 0" fill="#f36986"/><path d="m413.855469 54.503906c34.132812 43.5 54.492187 98.332032 54.492187 157.921875 0 141.382813-114.597656 256-255.957031 256-59.582031 0-114.402344-20.363281-157.898437-54.503906 46.859374 59.714844 119.683593 98.078125 201.464843 98.078125 141.363281 0 255.957031-114.613281 255.957031-256 0-81.796875-38.355468-154.632812-98.058593-201.496094zm0 0" fill="#fc476e"/><path d="m272.210938 299h-32.507813c-6.4375 0-11.65625-5.21875-11.65625-11.660156v-147.199219c0-6.441406 5.21875-11.660156 11.65625-11.660156h32.507813c6.4375 0 11.660156 5.21875 11.660156 11.660156v147.199219c0 6.441406-5.21875 11.660156-11.660156 11.660156zm0 0" fill="#ffd2e3"/><path d="m272.214844 128.480469h-21.066406c6.4375 0 11.65625 5.21875 11.65625 11.660156v147.199219c0 6.441406-5.21875 11.660156-11.65625 11.660156h21.066406c6.4375 0 11.65625-5.222656 11.65625-11.660156v-147.199219c0-6.441406-5.21875-11.660156-11.65625-11.660156zm0 0" fill="#ffbbd7"/><path d="m255.957031 391.804688c-15.414062 0-27.910156-12.5-27.910156-27.914063v-.007813c0-15.414062 12.496094-27.914062 27.910156-27.914062 15.414063 0 27.914063 12.5 27.914063 27.914062v.007813c0 15.414063-12.5 27.914063-27.914063 27.914063zm0 0" fill="#ffd2e3"/><path d="m255.957031 335.96875c-2.246093 0-4.429687.273438-6.523437.773438 12.269531 2.941406 21.390625 13.972656 21.390625 27.144531 0 13.167969-9.121094 24.203125-21.390625 27.140625 2.09375.503906 4.277344.777344 6.523437.777344 15.417969 0 27.914063-12.5 27.914063-27.917969s-12.5-27.917969-27.914063-27.917969zm0 0" fill="#ffbbd7"/></svg>